<svg xmlns="http://www.w3.org/2000/svg" viewBox="0 0 60.31 50.45"><defs><style>.cls-1{fill:#fff;}</style></defs><g id="Camada_2" data-name="Camada 2"><g id="Camada_3" data-name="Camada 3"><path class="cls-1" d="M46.68,16.18c0-1.9.55-3,4.3-7.42,2.93-3.45,3.51-3.52,5.14-8.24,1-2.91-11.49,7.26-13.53,9-3.28,2.73-8.47,5.4-10.08,5.16-2.5-.37-3.75-4.2-2-4.69.83-.23,1.78,2.14,2.68,2.32,1.34.27,2.75-4-.19-6.32C27,1.33,24.24,7.45,23.78,8.25c-2,3.42-.62,7.52-.29,9.17.54,2.76-4.55-.17-3.62-3.28.07-.25-8.57,3.47-8.81,3.57,0,0-5.68,3.13-10.06,5.82-1.53.93-1.18,3.34.24,4.44a59.37,59.37,0,0,0,9.12,4.62c3,1.17,10,4.36,10,4.36.26-5.43,5.77-6.52,3.9-3.93-2.38,3.33-1.28,8.51.68,10.23,3.06,2.68,6,2.83,8.62.38s.89-8.35-.53-6.77c-.81.9-.56,3.28-2.52,3.58-1.21.18-.7-3.28.05-5.24.89-2.35,8.18,2,10.21,3.45,7.15,5.11,11.57,10.47,13.36,11.75,1.12.8-1.06-7.83-3.19-10.35a44.7,44.7,0,0,0-5.11-6c-1.78-1.79,4.85-4.22,14.13-8.13C63.05,24.6,46.6,19.48,46.68,16.18ZM40,29.48,33.24,27.4a.57.57,0,0,0-.18,0l-9.59-.17a.88.88,0,0,0-.28.06l-6.11,3a.75.75,0,0,1-.55,0L7.7,25.81c-.5-.25-.51-.67,0-.93l9-4.81a.66.66,0,0,1,.64,0l6.35,4.22a.64.64,0,0,0,.38.1L31,24a1,1,0,0,0,.24-.07l9.06-4.58c1.08-.55,1.31-.29.5.57L36.07,25a.05.05,0,0,0,0,.08l4.45,3.52C41.78,29.56,41.52,30,40,29.48Zm9.87-4.63-3,2.14a.62.62,0,0,1-.7,0l-3.36-2.07a.53.53,0,0,1-.06-.85l3.23-2.59a.51.51,0,0,1,.65,0l3.26,2.56A.5.5,0,0,1,49.83,24.85Z"/></g></g></svg>