<svg xmlns="http://www.w3.org/2000/svg" viewBox="0 0 208.74 51.87"><defs><style>.cls-1{fill:#fff;}</style></defs><g id="Camada_2" data-name="Camada 2"><g id="Camada_2-2" data-name="Camada 2"><path class="cls-1" d="M6,44.81C6.75,43,1,46.71,3.76,50.91c1.29,2,6.58.78,7.22-2,1.23-5.5-5.31-16.56-3.29-15.24C9.87,35,11.87,32.4,12.15,30.5c.32-2.12-.58-3.38-3-5.17C8.74,25.06,11.2,30,8.73,30c-.77,0-1.84-.83-2.47-2.47C5.13,24.59,9.65,19.2,12.15,17.1c4.32-3.63,16-2.75,17.36-2.75.47,0-.36-1-1.61-1.42-5-1.8-14,.6-14,.57a29.47,29.47,0,0,1,12.9-4.18c9.7-1,18.07,2.18,17.27,1.33A10.62,10.62,0,0,0,39.1,7.23a21.6,21.6,0,0,0-8-1.13c0-.2,4.76-1.32,10.82-.76,7,.64,9.75,3,14.8,4.55,7.36,2.26,19.42.84,27-1.9,3.27-1.18,11.21-.87,15.38-.6a50.47,50.47,0,0,0,5.77.06L144.28,5.7l64.46-1.32c-13.27,0-103.38,0-104.32-.06-5-.22-14.84-2.84-23.66.16s-12,4.24-12.62,3.23,0-1.84-.57-3.89A5.73,5.73,0,0,0,63.49,0,3.67,3.67,0,0,0,60,4.58c.16.71,1.42-4.18,4.08-1a3.76,3.76,0,0,1-.38,2.78c-1.32,1.63-6.63-.27-8.45-.88,0,0-2.41-1.1-18.69-4.48C20.79-2.22,7.8,6,4.08,8.85,3.71,9.14,9.74,7.44,12,7c4.15-.74,6.2-1.46,6.45-.94S16.09,9,13.1,10.46C6.36,13.72.06,12.71,0,13.31s6.45,3.32,8.35,2.18c1.19-.72-3.31,2.8-4.55,5-2.81,5-.64,11.55.38,14.61,1.7,5.13,6,12,3.38,13.1C6,48.86,5,47.34,6,44.81Z"/></g></g></svg>